<svg width="17" height="21" viewBox="0 0 17 21" fill="none" xmlns="http://www.w3.org/2000/svg">
<path d="M0.687476 17.5001C2.1875 20.5003 5.68755 21.0001 8.18748 21.0001C10.6874 21.0001 12.6875 21 15.1875 18.5C17.6875 16 16.4301 11.4702 16.1876 10.5C15.6875 8.50004 15.1876 7.00004 14.6876 7.00004C14.2697 7.00004 14.0324 7.59343 13.6875 8C13.2069 8.5665 12.6875 9.00022 12.6875 9.00022C12.6875 9.00022 12.8201 7.76505 11.6875 5.50011C10.9803 4.08594 8.18748 0.500215 7.1875 1.00004C6.6876 1.24991 6.68757 2.49988 6.68755 3.49984V3.50011C6.6875 6.00021 5.35417 6.83333 4.6875 8C4.52083 7.66667 4.08755 6.90011 3.68755 6.50011C3.18755 6.00011 2.18755 5.50011 1.68755 5.50011C1.18755 5.50011 1.68742 6.88208 1.68748 8.00011C1.68758 10 -1.3125 13.5 0.687476 17.5001Z" fill="url(#paint0_radial)"/>
<path d="M3.45234 17.905C4.4393 19.7008 6.74221 20 8.38708 20C10.0319 20 11.3479 20 12.9929 18.5035C14.6378 17.0071 13.8105 14.2956 13.6509 13.7149C13.3218 12.5177 12.9929 11.6199 12.6639 11.6199C12.389 11.6199 12.2328 11.975 12.0059 12.2184C11.6897 12.5575 11.3479 12.8171 11.3479 12.8171C11.3479 12.8171 11.4352 12.0778 10.69 10.722C10.2247 9.87553 8.38708 7.72919 7.72913 8.02838C7.40018 8.17796 7.40018 9.02344 7.40018 9.52487C7.40018 11.0214 6.52286 11.5201 6.08421 12.2184C5.97455 12.0189 5.68947 11.56 5.42628 11.3206C5.0973 11.0213 4.43933 10.722 4.11035 10.722C3.78137 10.722 4.11026 11.5492 4.1103 12.2185C4.11037 13.4156 2.13642 15.5106 3.45234 17.905Z" fill="url(#paint1_radial)"/>
<path d="M11 17C11 18.6569 9.88071 19 8.5 19C7.11929 19 6 18.6569 6 17C6 15.3431 7.71875 13 8.5 13C9.28125 13 11 15.3431 11 17Z" fill="url(#paint2_linear)"/>
<defs>
<radialGradient id="paint0_radial" cx="0" cy="0" r="1" gradientUnits="userSpaceOnUse" gradientTransform="translate(8.5 15) rotate(90) scale(9 7.50537)">
<stop offset="0.444849" stop-color="#FF882A"/>
<stop offset="1" stop-color="#F7391B"/>
</radialGradient>
<radialGradient id="paint1_radial" cx="0" cy="0" r="1" gradientUnits="userSpaceOnUse" gradientTransform="translate(8.5 17) rotate(90) scale(5.5 5.04167)">
<stop stop-color="#FFE45F"/>
<stop offset="0.567708" stop-color="#FFE05A"/>
<stop offset="1" stop-color="#FFDB55" stop-opacity="0.36"/>
</radialGradient>
<linearGradient id="paint2_linear" x1="8.5" y1="19" x2="8.5" y2="11.2" gradientUnits="userSpaceOnUse">
<stop stop-color="#FFFFA5"/>
<stop offset="1" stop-color="#FFFFA5" stop-opacity="0"/>
</linearGradient>
</defs>
</svg>
