<svg width="36" height="36" viewBox="0 0 36 36" fill="none" xmlns="http://www.w3.org/2000/svg">
<path fill-rule="evenodd" clip-rule="evenodd" d="M34 2H13L13 6H34V2ZM13 0C11.8954 0 11 0.895431 11 2V6C11 7.10457 11.8954 8 13 8H34C35.1046 8 36 7.10457 36 6V2C36 0.895431 35.1046 0 34 0H13Z" fill="black"/>
<path d="M3.13043 0H-2.6226e-06V3.13043H3.13043V0Z" fill="#16ACEA"/>
<path d="M3.13043 4.69556H-2.6226e-06V7.82599H3.13043V4.69556Z" fill="#16ACEA"/>
<path d="M7.82574 0H4.69531V3.13043H7.82574V0Z" fill="#16ACEA"/>
<path d="M7.82574 4.69556H4.69531V7.82599H7.82574V4.69556Z" fill="#16ACEA"/>
<path fill-rule="evenodd" clip-rule="evenodd" d="M34 16H13L13 20H34V16ZM13 14C11.8954 14 11 14.8954 11 16V20C11 21.1046 11.8954 22 13 22H34C35.1046 22 36 21.1046 36 20V16C36 14.8954 35.1046 14 34 14H13Z" fill="black"/>
<path d="M3.13043 14H-2.6226e-06V17.1304H3.13043V14Z" fill="#16ACEA"/>
<path d="M3.13043 18.6956H-2.6226e-06V21.826H3.13043V18.6956Z" fill="#16ACEA"/>
<path d="M7.82574 14H4.69531V17.1304H7.82574V14Z" fill="#16ACEA"/>
<path d="M7.82574 18.6956H4.69531V21.826H7.82574V18.6956Z" fill="#16ACEA"/>
<path fill-rule="evenodd" clip-rule="evenodd" d="M34 30H13L13 34H34V30ZM13 28C11.8954 28 11 28.8954 11 30V34C11 35.1046 11.8954 36 13 36H34C35.1046 36 36 35.1046 36 34V30C36 28.8954 35.1046 28 34 28H13Z" fill="black"/>
<path d="M3.13043 28H-2.6226e-06V31.1304H3.13043V28Z" fill="#16ACEA"/>
<path d="M3.13043 32.6956H-2.6226e-06V35.826H3.13043V32.6956Z" fill="#16ACEA"/>
<path d="M7.82574 28H4.69531V31.1304H7.82574V28Z" fill="#16ACEA"/>
<path d="M7.82574 32.6956H4.69531V35.826H7.82574V32.6956Z" fill="#16ACEA"/>
</svg>
