<svg width="64" height="83" viewBox="0 0 64 83" fill="none" xmlns="http://www.w3.org/2000/svg">
<path d="M45.0833 39.1872C46.7044 45.1936 43.1494 51.377 37.1429 52.9981C31.1365 54.6193 24.9531 51.0642 23.332 45.0578C21.7109 39.0513 25.2659 32.868 31.2723 31.2468C37.2788 29.6257 43.4622 33.1807 45.0833 39.1872Z" fill="#F04A23"/>
<path fill-rule="evenodd" clip-rule="evenodd" d="M36.6218 51.0672C41.5618 49.7339 44.4857 44.6484 43.1524 39.7083C41.8191 34.7683 36.7335 31.8444 31.7935 33.1777C26.8534 34.511 23.9296 39.5966 25.2629 44.5366C26.5962 49.4767 31.6817 52.4005 36.6218 51.0672ZM37.1429 52.9981C43.1494 51.377 46.7044 45.1936 45.0833 39.1872C43.4622 33.1807 37.2788 29.6257 31.2723 31.2468C25.2659 32.868 21.7109 39.0513 23.332 45.0578C24.9531 51.0642 31.1365 54.6193 37.1429 52.9981Z" fill="black"/>
<path fill-rule="evenodd" clip-rule="evenodd" d="M59.3462 21.4957C59.8642 21.3043 60.129 20.7292 59.9377 20.2111C59.2754 18.4184 57.7388 16.6642 55.8002 15.1211C53.8416 13.562 51.3819 12.146 48.735 11.0586C43.4978 8.90694 37.2488 7.93447 32.6018 10.0393C32.0988 10.2672 31.8757 10.8597 32.1035 11.3628C32.3314 11.8659 32.924 12.089 33.427 11.8611C37.3258 10.0952 42.9271 10.8347 47.975 12.9086C50.4707 13.9339 52.7622 15.2591 54.5547 16.6859C56.3672 18.1287 57.5817 19.6052 58.0616 20.9042C58.253 21.4223 58.8281 21.6871 59.3462 21.4957Z" fill="black"/>
<path fill-rule="evenodd" clip-rule="evenodd" d="M52.4695 25.4257C52.838 25.0143 52.8032 24.3821 52.3918 24.0136C48.0013 20.0805 40.554 15.6904 33.1202 17.878C32.5904 18.0339 32.2873 18.5898 32.4432 19.1197C32.5991 19.6495 33.155 19.9526 33.6848 19.7967C40.0696 17.9177 46.7893 21.6799 51.0574 25.5033C51.4687 25.8718 52.1009 25.837 52.4695 25.4257Z" fill="black"/>
<path fill-rule="evenodd" clip-rule="evenodd" d="M15.3194 35.979C15.5476 35.7665 15.8133 35.578 16.0687 35.4733C16.5797 35.2637 17.1638 35.508 17.3734 36.0189C17.583 36.5299 17.3387 37.114 16.8277 37.3236C16.8348 37.3208 16.8382 37.3193 16.8383 37.3196C16.8389 37.3207 16.7776 37.354 16.6822 37.4428C16.5775 37.5403 16.4724 37.6677 16.396 37.8126C16.2651 38.0611 16.188 38.3996 16.4684 38.892L17.1845 40.1496C17.4381 40.595 17.3139 41.16 16.897 41.458C15.2517 42.634 13.3337 45.6768 13.1423 49.1125C13.0326 51.0809 13.972 53.7014 15.4297 56.6152C16.4479 58.6502 17.6548 60.7109 18.8055 62.6754C19.2861 63.496 19.7569 64.2999 20.2001 65.0781C22.0014 68.2414 21.3463 70.6302 20.7072 71.8045C20.5572 72.08 20.3674 72.3421 20.2188 72.5474C20.2088 72.5612 20.199 72.5747 20.1894 72.588C20.0205 72.8216 19.8973 72.9971 19.8082 73.1664C19.7233 73.3277 19.6966 73.435 19.693 73.5127C19.6899 73.5776 19.6993 73.6802 19.7931 73.8449C19.8266 73.9038 19.8514 73.9307 19.8621 73.9406C19.8657 73.9411 19.8709 73.9415 19.8782 73.9418C19.9825 73.9451 20.2456 73.8935 20.7302 73.6176C22.2154 72.7719 26.5443 70.2282 30.3155 68.0123C31.5503 67.2867 32.7254 66.5962 33.7212 66.012C34.1976 65.7325 34.8103 65.8922 35.0898 66.3685C35.3692 66.8449 35.2096 67.4576 34.7332 67.7371C33.7448 68.3169 32.5762 69.0036 31.3462 69.7263C27.5714 71.9444 23.2181 74.5024 21.7199 75.3556C21.1389 75.6864 20.4796 75.9621 19.8139 75.9407C19.0396 75.9158 18.4337 75.4996 18.055 74.8344C17.7908 74.3703 17.6727 73.8949 17.6952 73.4184C17.7171 72.9545 17.869 72.5568 18.0383 72.2351C18.2031 71.9219 18.4092 71.6367 18.5679 71.4172L18.5686 71.4163C18.744 71.1737 18.8643 71.0068 18.9505 70.8483C19.2966 70.2125 19.8833 68.5635 18.4621 66.0678C18.0439 65.3333 17.5885 64.5557 17.1168 63.7503C15.9532 61.7635 14.6904 59.6072 13.6411 57.51C12.1808 54.5913 11.0035 51.5475 11.1454 49.0012C11.3438 45.4391 13.1072 42.1743 15.0293 40.4066L14.7304 39.8816C14.0798 38.7392 14.2092 37.6728 14.6265 36.8805C14.8243 36.505 15.0787 36.2031 15.3194 35.979ZM19.8556 73.9395C19.8556 73.9395 19.8562 73.9396 19.8571 73.9399C19.856 73.9397 19.8556 73.9395 19.8556 73.9395Z" fill="black"/>
<path fill-rule="evenodd" clip-rule="evenodd" d="M17.7912 35.0807C16.9864 35.0416 16.2355 35.314 15.8486 35.6056C15.4076 35.9381 15.3196 36.5651 15.6521 37.0061C15.9846 37.4471 16.6116 37.5351 17.0526 37.2026C17.047 37.2069 17.0442 37.2089 17.0443 37.2091C17.045 37.2102 17.1055 37.174 17.2311 37.1368C17.3684 37.0961 17.5312 37.0704 17.6941 37.0784C17.9727 37.0919 18.3016 37.1966 18.5818 37.6886L19.298 38.9463C19.5516 39.3917 20.1008 39.5732 20.5699 39.3667C22.4208 38.5518 26.0164 38.4551 29.0687 40.0436C30.8175 40.9538 32.5918 43.0989 34.3538 45.8394C35.5844 47.7535 36.7406 49.843 37.843 51.835C38.3034 52.6671 38.7545 53.4823 39.1977 54.2605C40.9989 57.4238 43.3876 58.0794 44.7236 58.129C45.037 58.1406 45.3593 58.1111 45.6117 58.0881C45.6286 58.0865 45.6453 58.085 45.6616 58.0835C45.9488 58.0575 46.1625 58.0411 46.3536 58.0508C46.5356 58.0602 46.6415 58.092 46.7102 58.1284C46.7676 58.159 46.851 58.2194 46.9448 58.3841C46.9784 58.443 46.9888 58.478 46.9919 58.4923C46.9905 58.4956 46.9882 58.5003 46.9847 58.5067C46.9343 58.5981 46.7557 58.7981 46.2711 59.074C44.8564 59.8796 40.9662 62.0234 37.3675 64.0066C35.951 64.7873 34.5796 65.543 33.4221 66.1825C32.9387 66.4496 32.7633 67.058 33.0304 67.5414C33.2974 68.0248 33.9058 68.2002 34.3892 67.9331C35.5371 67.299 36.9004 66.5477 38.3114 65.7701C41.9166 63.7833 45.8331 61.6249 47.2607 60.812C47.8417 60.4812 48.4153 60.0549 48.7366 59.4715C49.1103 58.7928 49.0615 58.0594 48.6827 57.3943C48.4184 56.9302 48.0698 56.5861 47.6485 56.3622C47.2384 56.1444 46.8189 56.0721 46.4559 56.0535C46.1023 56.0354 45.7519 56.0671 45.4821 56.0916L45.4811 56.0917C45.1829 56.1187 44.978 56.137 44.7977 56.1303C44.0743 56.1035 42.3568 55.7666 40.9356 53.2708C40.5174 52.5363 40.0811 51.7479 39.6292 50.9313C38.5142 48.9167 37.3043 46.7304 36.0361 44.7578C34.2711 42.0126 32.2543 39.4469 29.992 38.2695C26.8273 36.6225 23.1198 36.473 20.6187 37.2239L20.3198 36.699C19.6691 35.5562 18.6859 35.1242 17.7912 35.0807ZM46.9943 58.4861C46.9942 58.4861 46.9941 58.4866 46.9939 58.4874C46.9942 58.4865 46.9943 58.4861 46.9943 58.4861Z" fill="black"/>
<path fill-rule="evenodd" clip-rule="evenodd" d="M31.4326 70.9249C31.9125 70.6516 32.5231 70.8191 32.7964 71.299C33.452 72.4503 35.31 72.9679 37.1125 71.9414C38.9151 70.915 39.4181 69.0531 38.7625 67.9018C38.4892 67.4218 38.6567 66.8112 39.1367 66.5379C39.6166 66.2647 40.2272 66.4322 40.5005 66.9121C41.8639 69.3065 40.5544 72.283 38.1022 73.6794C35.6499 75.0758 32.4219 74.6831 31.0584 72.2887C30.7852 71.8087 30.9527 71.1981 31.4326 70.9249Z" fill="black"/>
<path d="M45.0833 39.1872C46.7044 45.1936 43.1494 51.377 37.1429 52.9981C31.1365 54.6193 24.9531 51.0642 23.332 45.0578C21.7109 39.0513 25.2659 32.868 31.2723 31.2468C37.2788 29.6257 43.4622 33.1807 45.0833 39.1872Z" fill="#F04A23"/>
<path fill-rule="evenodd" clip-rule="evenodd" d="M36.6218 51.0672C41.5618 49.7339 44.4857 44.6484 43.1524 39.7083C41.8191 34.7683 36.7335 31.8444 31.7935 33.1777C26.8534 34.511 23.9296 39.5966 25.2629 44.5366C26.5962 49.4767 31.6817 52.4005 36.6218 51.0672ZM37.1429 52.9981C43.1494 51.377 46.7044 45.1936 45.0833 39.1872C43.4622 33.1807 37.2788 29.6257 31.2723 31.2468C25.2659 32.868 21.7109 39.0513 23.332 45.0578C24.9531 51.0642 31.1365 54.6193 37.1429 52.9981Z" fill="white"/>
<path d="M34.0231 46.2708L38.4906 43.5941L37.806 42.4515L36.2207 43.4012L32.5264 37.2353L31.3632 37.9322L30.5856 40.7903L31.8613 41.145L32.115 40.2376C32.2099 39.859 32.1977 39.6285 32.1977 39.6285L32.2183 39.6162C32.2183 39.6162 32.356 39.8694 32.504 40.1164L34.934 44.1722L33.3385 45.1282L34.0231 46.2708Z" fill="white"/>
</svg>
