<svg width="46" height="44" viewBox="0 0 46 44" fill="none" xmlns="http://www.w3.org/2000/svg">
<path d="M15.5313 18.1111H27.2401V28.2587H15.5313V18.1111Z" fill="#16ACEA"/>
<path fill-rule="evenodd" clip-rule="evenodd" d="M16.3735 15.3791C16.3735 12.6107 18.6178 10.3665 21.3862 10.3665C24.1546 10.3665 26.3988 12.6107 26.3988 15.3791V15.7694H23.3988V15.3791C23.3988 14.2675 22.4977 13.3665 21.3862 13.3665C20.2746 13.3665 19.3735 14.2675 19.3735 15.3791V23.5753H16.3735V15.3791Z" fill="#16ACEA"/>
<path fill-rule="evenodd" clip-rule="evenodd" d="M20.5 39C30.7173 39 39 30.7173 39 20.5C39 10.2827 30.7173 2 20.5 2C10.2828 2 2.00003 10.2827 2.00003 20.5C2.00003 30.7173 10.2828 39 20.5 39ZM20.5 41C31.8219 41 41 31.8218 41 20.5C41 9.17816 31.8219 0 20.5 0C9.17819 0 3.05176e-05 9.17816 3.05176e-05 20.5C3.05176e-05 31.8218 9.17819 41 20.5 41Z" fill="black"/>
<path fill-rule="evenodd" clip-rule="evenodd" d="M43.2924 43.1652L34.7968 34.6696L36.2111 33.2554L44.7066 41.7509C45.0972 42.1415 45.0972 42.7746 44.7066 43.1652C44.3161 43.5557 43.6829 43.5557 43.2924 43.1652Z" fill="black"/>
</svg>
