<svg width="105" height="42" viewBox="0 0 105 42" fill="none" xmlns="http://www.w3.org/2000/svg">
<path d="M0 3C0 1.34315 1.34315 0 3 0H46C47.6569 0 49 1.34315 49 3V39C49 40.6569 47.6569 42 46 42H3C1.34314 42 0 40.6569 0 39V3Z" fill="white"/>
<path fill-rule="evenodd" clip-rule="evenodd" d="M46 2H3C2.44772 2 2 2.44772 2 3V39C2 39.5523 2.44772 40 3 40H46C46.5523 40 47 39.5523 47 39V3C47 2.44771 46.5523 2 46 2ZM3 0C1.34315 0 0 1.34315 0 3V39C0 40.6569 1.34314 42 3 42H46C47.6569 42 49 40.6569 49 39V3C49 1.34315 47.6569 0 46 0H3Z" fill="black"/>
<path d="M56 3C56 1.34315 57.3431 0 59 0H102C103.657 0 105 1.34315 105 3V39C105 40.6569 103.657 42 102 42H59C57.3431 42 56 40.6569 56 39V3Z" fill="white"/>
<path fill-rule="evenodd" clip-rule="evenodd" d="M102 2H59C58.4477 2 58 2.44772 58 3V39C58 39.5523 58.4477 40 59 40H102C102.552 40 103 39.5523 103 39V3C103 2.44771 102.552 2 102 2ZM59 0C57.3431 0 56 1.34315 56 3V39C56 40.6569 57.3431 42 59 42H102C103.657 42 105 40.6569 105 39V3C105 1.34315 103.657 0 102 0H59Z" fill="black"/>
<path fill-rule="evenodd" clip-rule="evenodd" d="M97.7428 12.3305C98.1126 12.7407 98.0798 13.373 97.6696 13.7428L80.9157 28.8453C80.5519 29.1733 80.0042 29.1895 79.6216 28.8836L74.1785 24.5309L64.6536 32.7568C64.2357 33.1178 63.6042 33.0716 63.2432 32.6536C62.8822 32.2356 62.9284 31.6042 63.3464 31.2432L73.5002 22.474C73.8649 22.1591 74.4021 22.1489 74.7784 22.4498L80.2074 26.7912L96.3305 12.2572C96.7407 11.8875 97.373 11.9202 97.7428 12.3305Z" fill="#16ACEA"/>
<path d="M10 31H15V34H10V31Z" fill="#16ACEA"/>
<path d="M18 26H23V34H18V26Z" fill="#16ACEA"/>
<path d="M26 19H31V34H26V19Z" fill="#16ACEA"/>
<path d="M34 12H39V34H34V12Z" fill="#16ACEA"/>
</svg>
