<svg width="55" height="56" viewBox="0 0 55 56" fill="none" xmlns="http://www.w3.org/2000/svg">
<path fill-rule="evenodd" clip-rule="evenodd" d="M31.2443 0.755441L7.44694 21.2274L26.5841 43.4732C28.1517 45.2954 28.7239 46.9278 28.8431 48.2351C29.025 50.2297 28.1525 51.4674 28.1525 51.4674L50.1193 32.5702C50.1193 32.5702 55.0008 28.3708 50.3815 23.0012L31.2443 0.755441ZM31.0324 3.57592L10.2674 21.4393L28.1003 42.1689C29.478 43.7704 30.2426 45.3137 30.6033 46.7208L48.8052 31.0624C48.8072 31.0606 48.8102 31.0579 48.814 31.0544C48.8296 31.0399 48.8596 31.0115 48.901 30.9699C48.9841 30.8862 49.1097 30.7522 49.2535 30.574C49.5465 30.211 49.8833 29.7039 50.1091 29.0994C50.3304 28.507 50.441 27.8356 50.3166 27.0913C50.193 26.3513 49.8159 25.4105 48.8653 24.3055L31.0324 3.57592Z" fill="black"/>
<path fill-rule="evenodd" clip-rule="evenodd" d="M6.13486 32.7422C5.71618 33.1024 5.66875 33.7338 6.02892 34.1524L20.2831 50.722C21.1608 51.7422 22.0902 52.358 23.0245 52.6629C23.9577 52.9676 24.8315 52.9411 25.5666 52.7767C26.2947 52.6139 26.8915 52.3154 27.3015 52.0641C27.5084 51.9373 27.6733 51.819 27.7898 51.7296C27.8482 51.6847 27.8948 51.6468 27.9289 51.6183C27.946 51.604 27.9599 51.592 27.9707 51.5826L27.9802 51.5743L29.9997 49.837C30.4184 49.4768 30.4658 48.8454 30.1056 48.4267C29.7455 48.008 29.1141 47.9606 28.6954 48.3208L26.671 50.0623L26.6543 50.0769L26.6556 50.0759L26.6572 50.0744L26.6577 50.074L26.6571 50.0744L26.6446 50.0852C26.6307 50.0968 26.6061 50.1169 26.5717 50.1433C26.5025 50.1964 26.3953 50.2737 26.2563 50.359C25.9744 50.5318 25.5839 50.7235 25.1302 50.8249C24.6836 50.9248 24.1812 50.9366 23.6451 50.7616C23.1099 50.5869 22.4766 50.205 21.7993 49.4177L7.5451 32.8481C7.18492 32.4295 6.55354 32.382 6.13486 32.7422Z" fill="black"/>
<path fill-rule="evenodd" clip-rule="evenodd" d="M7.0925 26.3304C7.51118 25.9702 8.14257 26.0176 8.50274 26.4363L25.205 45.8516C25.5652 46.2703 25.5178 46.9017 25.0991 47.2618C24.6804 47.622 24.049 47.5746 23.6888 47.1559L6.98657 27.7406C6.62639 27.3219 6.67382 26.6906 7.0925 26.3304Z" fill="black"/>
<path fill-rule="evenodd" clip-rule="evenodd" d="M29.5036 13.1669L19.08 22.134L20.3299 23.587L30.7535 14.6199L29.5036 13.1669ZM16.2595 21.9221L20.1181 26.4074L33.574 14.8318L29.7155 10.3465L16.2595 21.9221Z" fill="#16ACEA"/>
<path d="M21.4039 27.9028L29.6269 20.8288L30.9131 22.3239L22.6901 29.3979L21.4039 27.9028Z" fill="#16ACEA"/>
<path d="M23.9768 30.8931L35.9376 20.6036L37.2238 22.0987L25.263 32.3882L23.9768 30.8931Z" fill="#16ACEA"/>
</svg>
