<svg width="62" height="34" viewBox="0 0 62 34" fill="none" xmlns="http://www.w3.org/2000/svg">
<path d="M7.63566 20.1137V22.4847C7.63566 23.1565 7.07889 23.7492 6.36305 23.7492C5.64721 23.7492 5.09044 23.196 5.09044 22.4847V18.7307H0V22.4847C0 25.9226 2.8236 28.7283 6.36305 28.7283C9.86273 28.7283 12.7261 25.9226 12.7261 22.4847V19.9952C12.7261 13.7516 5.09044 12.4871 5.09044 8.69356V6.24356C5.09044 5.57178 5.64721 4.97904 6.36305 4.97904C7.07889 4.97904 7.63566 5.53227 7.63566 6.24356V9.9976H12.7261V6.24356C12.6863 2.80565 9.86273 0 6.36305 0C2.8236 0 0 2.80565 0 6.24356V8.73308C0 14.9766 7.63566 16.2412 7.63566 20.1137Z" fill="#00ADEE"/>
<path d="M12.6863 31.2178H0V33.7073H12.6863V31.2178Z" fill="#00ADEE"/>
<path d="M15.828 6.24356C15.828 2.80565 18.6914 0 22.1911 0C25.6907 0 28.5541 2.80565 28.5541 6.24356V9.9976H23.4637V6.24356C23.4637 5.57178 22.9069 4.97904 22.1911 4.97904C21.4752 4.97904 20.9184 5.53227 20.9184 6.24356V22.4847C20.9184 23.1565 21.4752 23.7492 22.1911 23.7492C22.9069 23.7492 23.4637 23.196 23.4637 22.4847V18.7307H28.5541V22.4847C28.5541 25.9226 25.6907 28.7283 22.1911 28.7283C18.6914 28.7283 15.828 25.9226 15.828 22.4847V6.24356Z" fill="black"/>
<path d="M56.9095 0V14.9766L53.0917 0H48.041V28.7283H53.0917V13.7516L56.9095 28.7283H62V0H56.9095Z" fill="black"/>
<path d="M40.4053 0H35.3149L30.2642 28.7283H35.3547L36.0307 23.7492H39.6895L40.4053 28.7283H45.4958L40.4053 0ZM36.5875 18.7307L37.8601 8.81211L39.1327 18.7307H36.5875Z" fill="black"/>
</svg>
