<svg width="21" height="15" viewBox="0 0 21 15" fill="none" xmlns="http://www.w3.org/2000/svg">
<path d="M19.9915 2.94472C19.7561 2.07041 19.0667 1.38104 18.1924 1.14565C16.5951 0.708496 10.2059 0.708496 10.2059 0.708496C10.2059 0.708496 3.81671 0.708496 2.21941 1.12884C1.36191 1.36423 0.655734 2.07041 0.420342 2.94472C0 4.54202 0 7.85432 0 7.85432C0 7.85432 0 11.1834 0.420342 12.7639C0.655734 13.6382 1.3451 14.3276 2.21941 14.563C3.83352 15.0001 10.2059 15.0001 10.2059 15.0001C10.2059 15.0001 16.5951 15.0001 18.1924 14.5798C19.0667 14.3444 19.7561 13.655 19.9915 12.7807C20.4118 11.1834 20.4118 7.87113 20.4118 7.87113C20.4118 7.87113 20.4286 4.54202 19.9915 2.94472Z" fill="white"/>
<path d="M8.17188 10.9144L13.485 7.85428L8.17188 4.79419V10.9144Z" fill="black"/>
</svg>
